<svg xmlns="http://www.w3.org/2000/svg" viewBox="-2824.653 -2520.553 202.735 49.089">
  <defs>
    <style>
      .cls-9, .cls-10, .cls-11 {
        fill: #fff;
      }

      .cls-9 {
        stroke: #000;
      }

      .cls-9, .cls-10 {
        fill-rule: evenodd;
      }

      .cls-10, .cls-11 {
        stroke: #8b8b8b;
      }
    </style>
  </defs>
  <g id="Group_24" data-name="Group 24" transform="translate(-4229 -6884)">
    <path id="Fill-4" class="cls-9" d="M31.62,55.036h9.236V36.027h6.929l1.37-5.94h-8.3v-4.3a2.927,2.927,0,0,1,2.909-2.844h4.717V17H42.7v.027c-9.045.246-10.9,4.171-11.064,8.294H31.62v4.768H27v5.94h4.62Z" transform="translate(1377.847 4357)"/>
    <path id="Fill-1" class="cls-10" d="M60.557,21.834a14.114,14.114,0,0,1-5.636,2.112v0A8.8,8.8,0,0,0,48.389,21a9.3,9.3,0,0,0-9.037,9.54,10.051,10.051,0,0,0,.229,2.13h0a24.6,24.6,0,0,1-18.629-9.9,9.868,9.868,0,0,0,2.741,12.608c-1.064.085-3.024-.13-3.946-1.08a9.142,9.142,0,0,0,6.971,9.327,6.8,6.8,0,0,1-3.763.3c.287,2.806,4.009,6.475,8.078,6.475-1.45,1.772-6.907,4.985-13.031,3.962a26.092,26.092,0,0,0,14.137,4.219c14.579,0,25.9-12.477,25.293-27.869,0-.017,0-.034,0-.052,0-.04,0-.079,0-.12s0-.093-.005-.139a16.108,16.108,0,0,0,4.38-4.886,15.214,15.214,0,0,1-5.011,1.5,10.081,10.081,0,0,0,3.764-5.183" transform="translate(1455.196 4353)"/>
    <g id="Group_23" data-name="Group 23" transform="translate(124 -85)">
      <path id="XMLID_17_" class="cls-11" d="M33.444,0H14.191A14.207,14.207,0,0,0,0,14.191V33.444A14.207,14.207,0,0,0,14.191,47.635H33.444A14.207,14.207,0,0,0,47.635,33.444V14.191A14.207,14.207,0,0,0,33.444,0Zm9.4,33.444a9.4,9.4,0,0,1-9.4,9.4H14.191a9.4,9.4,0,0,1-9.4-9.4V14.191a9.4,9.4,0,0,1,9.4-9.4H33.444a9.4,9.4,0,0,1,9.4,9.4V33.444Z" transform="translate(1434.947 4448.947)"/>
      <path id="XMLID_81_" class="cls-11" d="M145.32,133a12.32,12.32,0,1,0,12.32,12.32A12.334,12.334,0,0,0,145.32,133Zm0,19.848a7.528,7.528,0,1,1,7.528-7.528A7.528,7.528,0,0,1,145.32,152.848Z" transform="translate(1313.445 4327.444)"/>
      <circle id="XMLID_83_" class="cls-11" cx="2.952" cy="2.952" r="2.952" transform="translate(1468.156 4457.585)"/>
    </g>
  </g>
</svg>
