<svg xmlns="http://www.w3.org/2000/svg" viewBox="-2808.941 -3403 252.441 165.734">
  <defs>
    <style>
      .cls-1, .cls-3 {
        fill: #fff;
      }

      .cls-1, .cls-2, .cls-3, .cls-4 {
        stroke: #fff;
      }

      .cls-2, .cls-4, .cls-6 {
        fill: none;
      }

      .cls-2 {
        stroke-width: 7px;
      }

      .cls-3, .cls-4 {
        stroke-width: 8px;
      }

      .cls-5 {
        stroke: none;
      }
    </style>
  </defs>
  <g id="Group_26" data-name="Group 26" transform="translate(-4098.9 -3548)">
    <g id="Ellipse_3" data-name="Ellipse 3" class="cls-1" transform="translate(1361.797 145)">
      <ellipse class="cls-5" cx="13.144" cy="12.579" rx="13.144" ry="12.579"/>
      <ellipse class="cls-6" cx="13.144" cy="12.579" rx="12.644" ry="12.079"/>
    </g>
    <line id="Line_5" data-name="Line 5" class="cls-2" x2="46.326" y2="76.176" transform="translate(1374.941 180.285)"/>
    <path id="Path_4" data-name="Path 4" class="cls-3" d="M0,0,25.927,39.483" transform="translate(1421.267 266.786)"/>
    <line id="Line_8" data-name="Line 8" class="cls-4" x2="23.865" y2="45.413" transform="translate(1293.5 200.794)"/>
    <line id="Line_6" data-name="Line 6" class="cls-4" y1="65.922" x2="39.307" transform="translate(1338.634 180.285)"/>
    <line id="Line_12" data-name="Line 12" class="cls-4" y1="51.272" x2="30.884" transform="translate(1305.134 255.461)"/>
    <line id="Line_15" data-name="Line 15" class="cls-4" y1="42.483" x2="25.269" transform="translate(1462.171 263.786)"/>
    <line id="Line_19" data-name="Line 19" class="cls-4" y1="42.483" x2="25.269" transform="translate(1497.266 265.251)"/>
    <line id="Line_7" data-name="Line 7" class="cls-4" x2="49.134" transform="translate(1313.365 246.207)"/>
    <line id="Line_14" data-name="Line 14" class="cls-4" x2="70.191" transform="translate(1381.768 266.786)"/>
    <line id="Line_10" data-name="Line 10" class="cls-4" x2="91.249" transform="translate(1333.019 256.461)"/>
    <line id="Line_16" data-name="Line 16" class="cls-4" x2="22.461" transform="translate(1484.44 263.786)"/>
    <line id="Line_22" data-name="Line 22" class="cls-4" x2="22.461" transform="translate(1476.209 282.83)"/>
    <line id="Line_23" data-name="Line 23" class="cls-4" x2="22.461" transform="translate(1459.171 306.269)"/>
    <line id="Line_20" data-name="Line 20" class="cls-4" x2="23.865" transform="translate(1518.535 267.251)"/>
    <line id="Line_21" data-name="Line 21" class="cls-4" x2="29.48" transform="translate(1495.266 306.734)"/>
  </g>
</svg>
